<?xml version="1.0" standalone="no"?>
<!DOCTYPE svg PUBLIC "-//W3C//DTD SVG 20010904//EN"
 "http://www.w3.org/TR/2001/REC-SVG-20010904/DTD/svg10.dtd">
<svg version="1.0" xmlns="http://www.w3.org/2000/svg"
 width="519.000000pt" height="480.000000pt" viewBox="0 0 519.000000 480.000000"
 preserveAspectRatio="xMidYMid meet">

<g transform="translate(0.000000,480.000000) scale(0.100000,-0.100000)"
fill="#000000" stroke="none">
<path d="M2530 4540 c-25 -5 -61 -9 -82 -9 -77 -2 -234 -76 -311 -147 -18 -16
-59 -38 -92 -48 -92 -28 -214 -90 -278 -141 -64 -51 -139 -147 -168 -214 -42
-95 -41 -248 0 -330 29 -56 100 -114 166 -135 32 -10 59 -25 62 -34 22 -63 50
-108 88 -144 40 -38 45 -47 45 -88 1 -25 7 -56 14 -70 8 -13 12 -38 9 -56 -6
-35 26 -108 53 -118 22 -9 101 43 112 74 l10 25 11 -28 c18 -46 23 -129 11
-177 -45 -176 -48 -260 -11 -330 11 -22 21 -47 21 -56 0 -13 -25 -71 -93 -214
-9 -19 -25 -51 -36 -70 -73 -128 -95 -214 -80 -316 11 -78 30 -104 89 -124 22
-7 40 -16 40 -19 0 -14 -60 -95 -93 -125 -43 -39 -54 -77 -37 -124 12 -34 11
-37 -15 -58 -25 -20 -28 -29 -35 -120 -5 -72 -13 -109 -29 -135 -20 -34 -20
-40 -10 -205 6 -93 15 -182 20 -198 15 -46 11 -63 -22 -96 -30 -30 -31 -34
-26 -93 3 -34 7 -69 11 -77 5 -15 -41 -51 -82 -64 -23 -8 -47 -49 -39 -70 3
-8 17 -22 31 -31 23 -15 44 -16 213 -6 104 6 213 18 243 26 30 9 82 15 115 14
33 -1 65 -1 70 1 19 5 41 0 60 -14 17 -12 17 -14 2 -37 -23 -32 -21 -64 6 -89
46 -44 234 -11 399 70 44 22 86 40 93 40 7 0 15 4 17 10 2 6 27 6 69 0 58 -8
72 -7 107 10 23 11 45 20 50 20 4 0 17 19 27 43 28 61 26 150 -4 214 l-23 51
33 68 c56 119 52 173 -32 438 -5 16 -9 38 -9 49 0 11 -7 28 -15 37 -14 15 -14
25 -4 65 10 39 18 50 44 61 34 14 45 31 45 67 0 11 15 34 34 51 23 22 36 44
41 73 3 23 13 47 21 54 16 14 19 87 4 140 -8 29 -6 50 10 103 12 37 25 64 30
61 6 -4 10 -11 10 -17 0 -22 91 -137 132 -167 69 -51 104 -35 55 26 -40 49
-67 103 -72 146 l-6 42 17 -30 c25 -45 55 -75 76 -75 24 0 23 6 -8 76 -23 52
-26 72 -26 160 1 91 5 114 38 209 20 59 45 150 54 203 10 54 26 126 35 162 23
82 24 268 3 360 -22 93 -109 289 -139 310 -21 15 -139 283 -149 340 -20 106
-61 229 -114 345 -82 177 -181 271 -396 378 -130 64 -302 97 -410 77z m-221
-475 c0 -5 -6 -1 -14 9 -8 11 -15 27 -15 35 1 17 29 -26 29 -44z m-250 -37 c6
-35 14 -76 18 -91 4 -21 -1 -37 -18 -60 -18 -24 -23 -47 -26 -102 -2 -38 -5
-75 -7 -81 -7 -18 12 -101 33 -146 28 -62 152 -168 196 -168 9 0 45 -8 80 -17
59 -15 66 -16 82 -1 10 9 34 19 53 23 94 19 175 151 165 269 l-3 41 86 42
c116 56 139 52 177 -25 55 -111 77 -192 82 -299 7 -122 -2 -162 -64 -293 -34
-74 -53 -101 -76 -115 -18 -10 -56 -36 -85 -58 -81 -61 -97 -67 -184 -67 -85
0 -117 11 -157 54 -14 14 -32 26 -40 26 -20 1 -51 24 -51 39 0 6 6 11 13 11 6
0 42 12 79 27 65 27 85 44 72 64 -8 14 -85 11 -140 -6 -66 -20 -74 -19 -74 8
0 13 -9 32 -21 43 l-21 19 23 18 c21 17 24 17 35 3 17 -23 51 -19 79 9 73 72
-31 201 -108 133 -20 -17 -24 -27 -17 -38 7 -12 12 -12 22 -2 29 29 87 3 88
-40 0 -27 -20 -32 -36 -9 -18 25 -36 27 -67 7 -12 -8 -55 -27 -96 -41 -59 -22
-79 -25 -97 -16 -36 16 -39 50 -10 121 14 35 26 74 26 87 0 85 -128 264 -170
238 -14 -8 -21 27 -15 81 11 124 18 164 26 170 5 3 9 13 9 23 0 38 95 181 121
181 3 0 12 -28 18 -62z m-363 -15 c-50 -130 -47 -260 9 -374 28 -59 13 -60
-32 -1 -58 76 -68 218 -23 320 37 84 73 126 46 55z m717 -80 c36 -37 64 -69
62 -72 -12 -11 -99 65 -130 112 -31 48 1 29 68 -40z m331 -64 c71 -39 63 -47
-19 -19 -43 15 -75 35 -112 72 -29 29 -53 56 -53 61 0 4 28 -12 63 -36 34 -25
89 -59 121 -78z m-549 31 c20 -27 57 -68 82 -90 48 -42 50 -52 5 -23 -48 31
-97 81 -121 123 -31 56 -10 50 34 -10z m-22 -92 c77 -78 133 -103 237 -104
120 -2 125 -3 114 -13 -35 -33 -197 -98 -300 -121 -69 -15 -106 -9 -121 21
-23 44 -11 269 14 269 2 0 27 -24 56 -52z m376 -285 c-26 -50 -28 -52 -118
-82 -63 -22 -65 -22 -138 -5 -48 12 -84 27 -106 45 l-32 28 29 1 c17 0 58 7
93 16 59 15 66 15 82 0 10 -9 28 -16 40 -16 24 0 81 50 81 72 0 7 19 25 43 39
l42 26 3 -41 c2 -26 -4 -54 -19 -83z m-616 35 c39 -52 43 -76 13 -89 -13 -6
-36 -9 -50 -5 -23 6 -26 11 -26 54 0 44 12 72 31 72 5 0 19 -15 32 -32z m1097
-1 c0 -18 -2 -19 -10 -7 -13 20 -13 43 0 35 6 -3 10 -16 10 -28z m7 -64 c-3
-10 -5 -4 -5 12 0 17 2 24 5 18 2 -7 2 -21 0 -30z m504 -120 c13 -21 25 -40
29 -43 15 -13 81 -162 96 -215 9 -33 18 -96 20 -140 l4 -80 -18 65 c-19 66
-112 311 -136 359 -15 29 -30 91 -23 91 3 0 16 -17 28 -37z m-1541 10 c0 -5
-4 -14 -9 -22 -7 -11 -13 -11 -32 0 -23 12 -23 12 -4 20 26 10 45 11 45 2z
m88 -268 c12 0 22 -3 22 -6 0 -15 -28 -28 -55 -25 -22 2 -31 9 -33 25 -3 20
-1 22 20 15 13 -4 33 -8 46 -9z m1364 -200 c27 -26 49 -58 53 -76 9 -40 -3
-182 -20 -251 -55 -219 -75 -301 -85 -358 -13 -73 -67 -240 -82 -255 -3 -3
-28 8 -54 25 -27 17 -66 35 -86 41 -21 5 -38 14 -38 19 0 5 11 44 24 87 13 43
27 98 31 123 3 25 10 59 16 75 5 17 13 59 19 95 5 36 15 89 21 119 12 64 1 85
-30 57 -19 -17 -20 -17 -31 3 -28 54 -47 -1 -31 -92 11 -59 10 -68 -19 -162
-18 -55 -36 -127 -42 -160 -24 -137 -39 -169 -63 -131 -7 11 -5 19 10 29 18
14 18 16 -4 83 -14 42 -25 104 -28 160 -7 117 14 202 72 299 71 116 102 177
114 221 9 33 18 43 50 57 36 16 103 33 142 36 8 1 36 -19 61 -44z m-1198 -161
c-2 -82 -8 -142 -15 -150 -36 -44 -48 75 -19 187 20 78 27 99 34 99 2 0 1 -61
0 -136z m896 133 c0 -20 -99 -191 -107 -184 -2 2 3 30 12 63 10 38 26 69 47
91 27 28 48 41 48 30z m-364 -83 c-9 -26 -16 -56 -16 -66 0 -14 -45 -48 -65
-48 -3 0 -5 24 -5 54 0 53 0 53 48 83 26 16 49 29 51 27 2 -2 -4 -24 -13 -50z
m-184 -44 c28 0 29 -2 23 -30 -13 -61 57 -126 110 -102 l25 12 0 -89 c0 -48 4
-110 9 -137 17 -87 70 -218 111 -272 22 -29 40 -57 40 -62 0 -14 -89 -16 -140
-4 -25 6 -60 19 -78 28 -53 27 -82 5 -45 -36 9 -10 14 -20 12 -23 -3 -2 -59 0
-125 6 -65 6 -143 11 -173 12 l-54 2 -19 65 c-22 80 -16 121 26 169 62 70 106
140 131 206 14 36 23 71 20 76 -13 20 -34 7 -61 -38 -15 -27 -52 -77 -83 -112
-106 -122 -121 -149 -121 -214 0 -84 35 -196 63 -201 170 -31 303 -41 543 -41
204 0 265 -3 278 -14 15 -12 20 -8 17 12 -2 14 70 7 97 -10 40 -26 62 -46 62
-57 0 -5 15 -27 34 -50 37 -46 52 -81 37 -90 -5 -4 -12 3 -16 14 -8 26 -63 80
-81 80 -9 0 -14 -11 -14 -30 0 -16 4 -30 8 -30 18 0 52 -79 52 -120 l0 -43
-26 38 c-14 21 -30 49 -35 62 -9 24 -42 32 -54 13 -4 -6 6 -35 20 -66 15 -31
27 -66 28 -77 2 -43 -3 -77 -11 -77 -8 0 -62 126 -62 145 0 19 -45 55 -69 55
-31 0 -103 35 -153 73 -25 20 -49 28 -79 29 -73 3 -181 -4 -229 -14 -43 -9
-314 -12 -375 -3 -83 11 -184 46 -196 68 -5 8 -5 49 1 91 8 66 22 102 95 251
47 97 85 178 85 181 0 15 85 180 102 198 11 12 29 38 40 58 15 26 38 45 82 66
75 37 87 42 104 36 8 -2 27 -4 44 -4z m369 -107 c-16 -68 -31 -236 -26 -297
l5 -51 -11 40 c-13 48 -7 270 9 305 6 14 13 34 16 44 13 38 18 6 7 -41z m-14
-385 c-3 -8 -6 -5 -6 6 -1 11 2 17 5 13 3 -3 4 -12 1 -19z m-97 -506 c0 -4 20
-21 46 -37 25 -16 47 -32 50 -36 5 -8 -50 -209 -66 -239 -9 -19 -201 -60 -290
-61 -94 -2 -231 21 -340 57 -25 8 -54 14 -65 13 -45 -5 -92 2 -109 14 -11 8
-22 33 -26 62 -7 45 -6 48 21 63 31 18 59 60 74 112 l11 35 59 -3 c208 -11
563 2 582 22 9 9 53 7 53 -2z m228 -114 c6 -7 18 -33 27 -58 10 -25 24 -60 32
-79 12 -27 13 -39 4 -53 -16 -25 -67 -166 -91 -248 -15 -54 -50 -156 -57 -168
-3 -7 -87 55 -113 82 -21 23 -22 30 -12 46 7 11 12 27 12 35 0 8 4 23 10 33
32 57 84 237 106 367 4 22 9 43 11 48 7 12 60 8 71 -5z m-973 -257 c31 -12 66
-21 78 -21 12 0 33 -3 46 -7 21 -5 23 -10 17 -50 -6 -48 15 -107 37 -100 7 2
14 23 17 48 8 68 14 72 79 64 30 -4 83 -13 116 -20 64 -13 153 -11 220 5 63
14 125 19 125 9 0 -21 -25 -99 -32 -99 -4 0 -14 13 -23 30 -16 31 -45 32 -45
1 0 -31 58 -134 104 -187 93 -106 247 -176 285 -130 18 22 7 46 -28 59 -26 10
-29 15 -24 41 2 17 11 47 18 66 7 19 15 51 19 71 8 44 36 75 36 40 0 -11 6
-38 14 -58 8 -21 22 -79 31 -130 18 -101 15 -123 -31 -214 -30 -59 -32 -126
-4 -162 33 -42 24 -150 -15 -179 -5 -4 -39 -8 -75 -8 -53 0 -77 6 -130 32 -63
32 -69 33 -185 32 -109 0 -125 -3 -177 -27 -31 -15 -62 -27 -68 -27 -14 0 -65
52 -74 76 -3 8 4 36 15 62 l22 47 -22 65 c-12 36 -26 94 -31 130 -4 36 -13 77
-18 91 -11 28 -57 69 -77 69 -7 0 -24 9 -39 21 -14 11 -30 17 -36 14 -23 -14
-7 -46 44 -89 l53 -46 6 -88 c3 -49 12 -105 20 -124 13 -30 13 -38 -1 -64 -9
-16 -16 -52 -15 -81 l0 -53 -36 0 c-20 0 -51 10 -70 21 -19 12 -69 32 -110 46
-60 21 -88 24 -143 21 l-68 -5 -6 35 c-6 32 -4 39 30 66 40 35 47 75 22 124
-8 15 -17 74 -20 132 -4 58 -9 133 -12 167 l-5 61 36 25 c40 27 84 90 85 120
0 31 -30 32 -55 1 l-23 -29 5 60 c6 69 27 103 49 80 8 -7 39 -23 69 -34z"/>
<path d="M2342 1288 c-22 -22 -14 -57 13 -64 35 -9 55 2 55 29 0 27 -17 47
-40 47 -9 0 -21 -5 -28 -12z"/>
<path d="M2683 1045 c-3 -9 -4 -62 -1 -119 3 -103 4 -105 38 -141 19 -21 45
-49 58 -62 12 -13 26 -22 31 -18 5 3 12 1 16 -5 3 -5 28 -10 55 -10 39 0 52 4
64 22 30 42 22 51 -43 43 -55 -6 -59 -5 -65 17 -3 13 -24 34 -46 48 -50 30
-63 66 -68 191 -2 39 -28 61 -39 34z"/>
</g>
</svg>
